<?xml version="1.0" encoding="utf-8"?>
<svg version="1.1" id="Layer_1"
xmlns="http://www.w3.org/2000/svg"
xmlns:xlink="http://www.w3.org/1999/xlink"
width="2880px" height="1303px"
xml:space="preserve">
<g id="PathID_109" transform="matrix(10.672, 0, 0, 10.672, 1483.75, 645.15)" opacity="1">
<path style="fill:#5231D9;fill-opacity:1" d="M8.95 0L0.2 -36.65L7.8 -36.65L13.3 -11.45L20 -36.65L28.8 -36.65L35.25 -11.05L40.85 -36.65L48.3 -36.65L39.45 0L31.55 0L24.25 -27.4L17 0L8.95 0" />
</g>
<g id="PathID_110" transform="matrix(10.672, 0, 0, 10.672, 1483.75, 645.15)" opacity="1">
</g>
<g id="PathID_111" transform="matrix(10.672, 0, 0, 10.672, 1976.15, 645.15)" opacity="1">
<path style="fill:#5231D9;fill-opacity:1" d="M19.05 -8.45L26.05 -7.25Q24.7 -3.4 21.75 -1.4Q18.85 0.6 14.5 0.6Q7.55 0.6 4.25 -3.9Q1.65 -7.55 1.65 -13.05Q1.65 -19.65 5.1 -23.4Q8.55 -27.15 13.8 -27.15Q19.75 -27.15 23.15 -23.2Q26.6 -19.3 26.45 -11.25L8.85 -11.25Q8.9 -8.1 10.5 -6.35Q12.15 -4.65 14.55 -4.65Q16.2 -4.65 17.3 -5.55Q18.45 -6.45 19.05 -8.45M19.45 -15.55Q19.35 -18.55 17.85 -20.15Q16.35 -21.75 14.2 -21.75Q11.9 -21.75 10.4 -20.05Q8.95 -18.4 8.95 -15.55L19.45 -15.55" />
</g>
<g id="PathID_112" transform="matrix(10.672, 0, 0, 10.672, 1976.15, 645.15)" opacity="1">
</g>
<g id="PathID_113" transform="matrix(10.672, 0, 0, 10.672, 2266.9, 645.15)" opacity="1">
<path style="fill:#5231D9;fill-opacity:1" d="M3.7 0L3.7 -36.65L10.75 -36.65L10.75 0L3.7 0" />
</g>
<g id="PathID_114" transform="matrix(10.672, 0, 0, 10.672, 2266.9, 645.15)" opacity="1">
</g>
<g id="PathID_115" transform="matrix(10.672, 0, 0, 10.672, 2405.45, 645.15)" opacity="1">
<path style="fill:#5231D9;fill-opacity:1" d="M15.9 -26.55L15.9 -20.95L11.1 -20.95L11.1 -10.25Q11.1 -7 11.2 -6.45Q11.35 -5.9 11.85 -5.55Q12.35 -5.25 13.05 -5.25Q14 -5.25 15.85 -5.9L16.5 -0.45Q14 0.6 10.9 0.6Q9 0.6 7.45 0Q5.95 -0.65 5.25 -1.65Q4.55 -2.7 4.25 -4.4Q4.05 -5.65 4.05 -9.35L4.05 -20.95L0.8 -20.95L0.8 -26.55L4.05 -26.55L4.05 -31.85L11.1 -36L11.1 -26.55L15.9 -26.55" />
</g>
<g id="PathID_116" transform="matrix(10.672, 0, 0, 10.672, 2405.45, 645.15)" opacity="1">
</g>
<g id="PathID_117" transform="matrix(10.672, 0, 0, 10.672, 2573.95, 645.15)" opacity="1">
<path style="fill:#5231D9;fill-opacity:1" d="M0.3 -26.55L7.8 -26.55L14.15 -7.65L20.4 -26.55L27.7 -26.55L18.3 -0.95L16.6 3.65Q15.65 6 14.8 7.2Q14 8.45 12.9 9.2Q11.8 9.95 10.2 10.35Q8.6 10.8 6.6 10.8Q4.6 10.8 2.65 10.4L2 4.9Q3.65 5.2 4.95 5.2Q7.4 5.2 8.6 3.75Q9.8 2.35 10.4 0.1L0.3 -26.55" />
</g>
<g id="PathID_118" transform="matrix(10.672, 0, 0, 10.672, 2573.95, 645.15)" opacity="1">
</g>
<g id="PathID_119" transform="matrix(8.32286, 0, 0, 8.32286, 1077.3, 815.95)" opacity="1">
<path style="fill:#5231D9;fill-opacity:1" d="M36.05 12.8Q26.65 22.2 11.35 25.15L11.35 25.65Q12.85 35.05 21.25 39Q21.75 39 22.2 39.5Q24.2 40.95 23.7 43.45Q22.7 44.9 21.25 44.9L20.75 44.9Q10.35 45.4 2 40Q-6.4 35.05 -10.35 25.65Q-25.65 22.7 -35.55 13.3Q-45.45 3.45 -45.9 -9.4Q-45.45 -24.2 -32.6 -34.6Q-19.75 -44.45 0 -44.95Q19.25 -44.45 32.6 -34.6Q45.45 -24.7 45.9 -9.4Q45.45 3.45 36.05 12.8" />
</g>
<g id="PathID_120" transform="matrix(8.32286, 0, 0, 8.32286, 1077.3, 815.95)" opacity="1">
</g>
<g id="PathID_121" transform="matrix(8.32286, 0, 0, 8.32286, 541.1, 611.3)" opacity="1">
<path style="fill:#7E63EC;fill-opacity:1" d="M39.3 -60.25Q55.6 -51.35 64 -37.05Q65.5 -33.1 62.05 -31.15Q58.6 -29.15 56.1 -32.6Q49.2 -45.45 34.9 -52.35Q20.55 -59.75 2.3 -59.75Q-22.4 -59.25 -38.7 -46.95Q-55 -34.6 -55.5 -15.8Q-55 1.95 -40.2 14.3Q-25.35 26.65 -2.15 28.6L-1.15 28.6Q3.25 28.6 3.75 32.55Q4.25 37 3.75 41.45Q2.3 50.35 -3.65 57.25Q5.25 54.3 11.65 47.4Q14.65 44.9 18.1 47.4Q20.55 50.35 18.1 53.8Q2.8 69.6 -19.45 68.6Q-18.45 68.6 -17.95 68.15Q-21.9 68.6 -22.9 65.65Q-23.9 61.7 -20.9 60.2Q-7.6 54.3 -5.1 40L-4.65 37Q-30.3 34.55 -47.1 19.75Q-63.9 4.9 -64.4 -15.8Q-63.9 -38.05 -44.6 -53.35Q-25.85 -68.15 2.3 -68.65Q23 -68.65 39.3 -60.25" />
</g>
<g id="PathID_122" transform="matrix(8.32286, 0, 0, 8.32286, 541.1, 611.3)" opacity="1">
</g>
<g id="PathID_123" transform="matrix(4.31604, -1.04025, 0.800511, 3.32136, 1005.75, 667.05)" opacity="0.6">
<radialGradient
id="RadialGradID_13" gradientUnits="userSpaceOnUse" gradientTransform="matrix(0.0622559, 0, 0, 0.0622559, 0, 0)" spreadMethod ="pad" cx="0" cy="0" r="819.2" fx="0" fy="0" >
<stop  offset="0"  style="stop-color:#FFFFFF;stop-opacity:0.768627" />
<stop  offset="0.862745"  style="stop-color:#FFFFFF;stop-opacity:0.219608" />
</radialGradient>
<path style="fill:url(#RadialGradID_13) " d="M36 -36.1Q51 -21.1 51 0Q51 21.1 36 36Q21.1 51 0 51Q-21.1 51 -36.1 36Q-51 21.1 -51 0Q-51 -21.1 -36.1 -36.1Q-21.1 -51 0 -51Q21.1 -51 36 -36.1" />
</g>
<g id="PathID_124" transform="matrix(4.31604, -1.04025, 0.800511, 3.32136, 1005.75, 667.05)" opacity="0.6">
</g>
<g id="PathID_125" transform="matrix(1.89466, -0.80066, 0.616139, 1.45802, 979.55, 613.8)" opacity="0.6">
<radialGradient
id="RadialGradID_14" gradientUnits="userSpaceOnUse" gradientTransform="matrix(0.0622559, 0, 0, 0.0622559, 0, 0)" spreadMethod ="pad" cx="0" cy="0" r="819.2" fx="0" fy="0" >
<stop  offset="0"  style="stop-color:#FFFFFF;stop-opacity:1" />
<stop  offset="0.862745"  style="stop-color:#FFFFFF;stop-opacity:0.376471" />
</radialGradient>
<path style="fill:url(#RadialGradID_14) " d="M36 -36.1Q51 -21.1 51 0Q51 21.1 36 36Q21.1 51 0 51Q-21.1 51 -36.1 36Q-51 21.1 -51 0Q-51 -21.1 -36.1 -36.1Q-21.1 -51 0 -51Q21.1 -51 36 -36.1" />
</g>
<g id="PathID_126" transform="matrix(1.89466, -0.80066, 0.616139, 1.45802, 979.55, 613.8)" opacity="0.6">
</g>
</svg>
